<svg width="34" height="38" viewBox="0 0 34 38" fill="none" xmlns="http://www.w3.org/2000/svg">
<path d="M16.9993 6.30641C26.0135 6.30641 33.3228 11.1853 33.3228 17.1888C33.3228 20.2358 31.4366 22.9927 28.4076 24.9696C30.3483 23.3917 31.5091 21.3966 31.5091 19.2383C31.5091 14.0873 25.016 9.93386 16.9993 9.93386V15.375L9.74441 8.12014L16.9993 0.865234V6.30641ZM16.9993 31.6986C7.9851 31.6986 0.675781 26.8196 0.675781 20.8162C0.675781 17.7692 2.56206 15.0123 5.59098 13.0353C3.65029 14.6133 2.48951 16.6084 2.48951 18.7848C2.48951 23.9177 8.98264 28.0711 16.9993 28.0711V22.6299L24.2542 29.8848L16.9993 37.1397V31.6986Z" fill="white"/>
</svg>
