<svg width="40" height="40" viewBox="0 0 40 40" fill="none" xmlns="http://www.w3.org/2000/svg">
<path d="M13.3311 28.3338C11.2527 28.3352 9.24882 27.5599 7.71259 26.16C6.17637 24.7601 5.21871 22.8366 5.02753 20.767C4.83635 18.6975 5.42545 16.6311 6.67923 14.9735C7.93301 13.3158 9.76097 12.1866 11.8045 11.8072C12.1634 9.89663 13.1787 8.17158 14.6748 6.93035C16.171 5.68912 18.0538 5.00977 19.9978 5.00977C21.9418 5.00977 23.8246 5.68912 25.3207 6.93035C26.8169 8.17158 27.8322 9.89663 28.1911 11.8072C30.2278 12.1943 32.0471 13.3263 33.2942 14.9824C34.5412 16.6385 35.1265 18.6998 34.9358 20.7641C34.7451 22.8284 33.7922 24.7476 32.2628 26.1472C30.7335 27.5468 28.7375 28.3264 26.6645 28.3338M14.9978 20.0005L19.9978 15.0005M19.9978 15.0005L24.9978 20.0005M19.9978 15.0005V35.0005" stroke="#030929" stroke-width="2" stroke-linecap="round" stroke-linejoin="round"/>
</svg>
