<svg width="166" height="49" viewBox="0 0 166 49" fill="none" xmlns="http://www.w3.org/2000/svg">
<path d="M98.089 10.2632H101.19L111.991 35.501H107.999L105.468 29.2628H93.455L90.9597 35.501H86.9673L98.089 10.2632ZM104.22 26.2685L99.5149 14.6833H99.4436L94.667 26.2685H104.22ZM115.274 10.2632H124.15C125.766 10.2632 127.097 10.4889 128.143 10.9404C129.188 11.3682 130.008 11.9267 130.602 12.6158C131.22 13.2812 131.648 14.0417 131.886 14.8972C132.123 15.729 132.242 16.537 132.242 17.3212C132.242 18.1054 132.123 18.9253 131.886 19.7808C131.648 20.6126 131.22 21.373 130.602 22.0622C130.008 22.7276 129.188 23.2861 128.143 23.7376C127.097 24.1653 125.766 24.3792 124.15 24.3792H118.696V35.501H115.274V10.2632ZM118.696 21.3849H123.188C123.853 21.3849 124.507 21.3374 125.148 21.2423C125.814 21.1235 126.396 20.9215 126.895 20.6363C127.418 20.3512 127.834 19.9472 128.143 19.4243C128.452 18.8778 128.606 18.1767 128.606 17.3212C128.606 16.4657 128.452 15.7765 128.143 15.2537C127.834 14.7071 127.418 14.2912 126.895 14.0061C126.396 13.7209 125.814 13.5308 125.148 13.4357C124.507 13.3169 123.853 13.2575 123.188 13.2575H118.696V21.3849ZM136.405 10.2632H139.827V35.501H136.405V10.2632Z" fill="white"/>
<path d="M0.681754 35.3403L11.8835 10.2081H17.6281L28.8658 35.3403H22.7622L13.571 13.1522H15.8688L6.64168 35.3403H0.681754ZM6.28265 29.9549L7.82649 25.5388H20.7516L22.3314 29.9549H6.28265Z" fill="#F05D23"/>
<path d="M73.0931 35.84C70.891 35.84 68.9522 35.4091 67.2767 34.5474C65.6252 33.6858 64.3446 32.5129 63.4351 31.0289C62.5256 29.521 62.0708 27.8096 62.0708 25.8948C62.0708 23.956 62.5136 22.2446 63.3992 20.7606C64.3087 19.2527 65.5414 18.0799 67.0972 17.2421C68.653 16.3804 70.4123 15.9496 72.375 15.9496C74.2659 15.9496 75.9653 16.3565 77.4732 17.1703C79.0051 17.9602 80.2139 19.1091 81.0995 20.617C81.9851 22.101 82.4279 23.8842 82.4279 25.9666C82.4279 26.182 82.4159 26.4333 82.392 26.7206C82.368 26.9838 82.3441 27.2352 82.3202 27.4745H66.6305V24.2073H79.3761L77.2219 25.1767C77.2219 24.1714 77.0185 23.2978 76.6116 22.5558C76.2047 21.8138 75.6422 21.2393 74.9241 20.8324C74.2061 20.4016 73.3683 20.1862 72.4109 20.1862C71.4535 20.1862 70.6038 20.4016 69.8618 20.8324C69.1437 21.2393 68.5812 21.8258 68.1743 22.5917C67.7674 23.3337 67.564 24.2193 67.564 25.2485V26.1102C67.564 27.1634 67.7914 28.0968 68.2461 28.9106C68.7248 29.7005 69.3831 30.3109 70.2208 30.7417C71.0825 31.1486 72.0878 31.3521 73.2367 31.3521C74.2659 31.3521 75.1635 31.1965 75.9294 30.8853C76.7193 30.5742 77.4373 30.1074 78.0836 29.4851L81.0636 32.7164C80.1779 33.7217 79.0649 34.4996 77.7246 35.0501C76.3842 35.5767 74.8403 35.84 73.0931 35.84Z" fill="#F05D23"/>
<path d="M65.4958 35.6211L54.8911 26.182L49.2037 31.2642L54.0795 35.6211H65.4958ZM54.6113 25.9234L65.1276 16.7231H54.553L49.2037 21.2983L54.6113 25.9234ZM43.7958 25.9234L43.5049 26.1722L43.516 26.182L43.8014 25.9281L43.7958 25.9234Z" fill="white"/>
<path d="M32.5889 35.4101L43.479 25.7172L32.9572 16.5122H43.5318L54.5798 25.9613L44.0052 35.4101H32.5889Z" fill="#F05D23"/>
</svg>
