<svg width="166" height="49" viewBox="0 0 166 49" fill="none" xmlns="http://www.w3.org/2000/svg">
<path d="M91.1443 41L93.7575 34.4669H106.338L108.989 41H113.17L101.859 14.569H98.6107L86.9631 41H91.1443ZM100.029 19.1982H100.104L105.032 31.331H95.0268L100.029 19.1982ZM120.192 41V29.3525H126.091C131.093 29.3525 134.378 26.7392 134.378 21.9607C134.378 17.2196 131.168 14.569 126.091 14.569H116.608V41H120.192ZM120.192 17.7049H125.045C128.704 17.7049 130.571 19.0862 130.571 21.9607C130.571 24.8726 128.741 26.2166 125.045 26.2166H120.192V17.7049ZM142.322 14.569H138.738V41H142.322V14.569Z" fill="#091540"/>
<path d="M0.661595 36.8398L12.393 10.5195H18.409L30.178 36.8398H23.7859L14.1602 13.6027H16.5666L6.90328 36.8398H0.661595ZM6.52728 31.1998L8.1441 26.5749H21.6803L23.3347 31.1998H6.52728Z" fill="#F05D23"/>
<path d="M73.6606 37.3516C71.3545 37.3516 69.324 36.9004 67.5694 35.998C65.8397 35.0956 64.4986 33.8673 63.5461 32.3131C62.5936 30.7339 62.1173 28.9416 62.1173 26.9362C62.1173 24.9058 62.581 23.1135 63.5085 21.5594C64.461 19.9801 65.752 18.7519 67.3814 17.8745C69.0107 16.9721 70.8531 16.5209 72.9086 16.5209C74.8889 16.5209 76.6687 16.947 78.2479 17.7993C79.8522 18.6265 81.1181 19.8297 82.0456 21.409C82.973 22.9631 83.4368 24.8306 83.4368 27.0114C83.4368 27.237 83.4242 27.5002 83.3992 27.801C83.3741 28.0768 83.349 28.34 83.324 28.5907H66.8925V25.169H80.2407L77.9847 26.1842C77.9847 25.1314 77.7716 24.2165 77.3455 23.4394C76.9194 22.6623 76.3303 22.0607 75.5783 21.6346C74.8263 21.1834 73.9489 20.9578 72.9462 20.9578C71.9436 20.9578 71.0537 21.1834 70.2766 21.6346C69.5246 22.0607 68.9355 22.6748 68.5094 23.477C68.0832 24.2541 67.8702 25.1815 67.8702 26.2594V27.1618C67.8702 28.2648 68.1083 29.2424 68.5846 30.0947C69.0859 30.9219 69.7753 31.5611 70.6526 32.0123C71.555 32.4384 72.6078 32.6515 73.811 32.6515C74.8889 32.6515 75.8289 32.4886 76.6311 32.1627C77.4583 31.8368 78.2103 31.348 78.8871 30.6963L82.008 34.0803C81.0805 35.1332 79.9149 35.9478 78.5111 36.5244C77.1074 37.0758 75.4905 37.3516 73.6606 37.3516Z" fill="#F05D23"/>
<path d="M65.4909 36.1207L54.8862 26.6816L49.1988 31.7638L54.0746 36.1207H65.4909ZM54.6064 26.423L65.1227 17.2227H54.5481L49.1988 21.7978L54.6064 26.423ZM43.7909 26.423L43.5 26.6718L43.5111 26.6816L43.7965 26.4277L43.7909 26.423Z" fill="#091540"/>
<path d="M32.582 35.9098L43.4722 26.2168L32.9503 17.0117H43.5249L54.5729 26.4609L43.9983 35.9098H32.582Z" fill="#F05D23"/>
</svg>
