<svg width="38" height="12" viewBox="0 0 38 12" fill="none" xmlns="http://www.w3.org/2000/svg">
<path d="M22.4933 2.05944H23.2091L25.7022 7.88477H24.7806L24.1965 6.44489H21.4237L20.8477 7.88477H19.9262L22.4933 2.05944ZM23.9085 5.75375L22.8224 3.0797H22.8059L21.7034 5.75375H23.9085ZM26.46 2.05944H28.5087C28.8817 2.05944 29.1889 2.11155 29.4302 2.21577C29.6716 2.31451 29.8608 2.44341 29.9979 2.60248C30.1405 2.75607 30.2393 2.9316 30.2941 3.12906C30.349 3.32105 30.3764 3.50755 30.3764 3.68856C30.3764 3.86957 30.349 4.05881 30.2941 4.25628C30.2393 4.44826 30.1405 4.62379 29.9979 4.78286C29.8608 4.93645 29.6716 5.06535 29.4302 5.16957C29.1889 5.26831 28.8817 5.31767 28.5087 5.31767H27.2498V7.88477H26.46V2.05944ZM27.2498 4.62653H28.2865C28.4401 4.62653 28.591 4.61556 28.7391 4.59362C28.8927 4.5662 29.027 4.51957 29.1422 4.45375C29.2629 4.38793 29.3589 4.29468 29.4302 4.174C29.5015 4.04784 29.5372 3.88603 29.5372 3.68856C29.5372 3.49109 29.5015 3.33202 29.4302 3.21134C29.3589 3.08518 29.2629 2.98919 29.1422 2.92337C29.027 2.85755 28.8927 2.81366 28.7391 2.79172C28.591 2.7643 28.4401 2.75058 28.2865 2.75058H27.2498V4.62653ZM31.3372 2.05944H32.1271V7.88477H31.3372V2.05944Z" fill="white"/>
<path d="M0.00940073 8.07812L2.59497 2.27717H3.9209L6.51475 8.07812H5.10595L2.98446 2.95671H3.51483L1.38505 8.07812H0.00940073ZM1.30218 6.83506L1.65853 5.81575H4.64187L5.00651 6.83506H1.30218Z" fill="#F05D23"/>
<path d="M16.7234 8.19325C16.2151 8.19325 15.7676 8.0938 15.3809 7.89492C14.9997 7.69603 14.7041 7.42531 14.4942 7.08278C14.2842 6.73473 14.1792 6.33971 14.1792 5.89773C14.1792 5.45023 14.2815 5.05521 14.4859 4.71268C14.6958 4.36462 14.9803 4.09391 15.3394 3.90055C15.6985 3.70166 16.1046 3.60221 16.5576 3.60221C16.9941 3.60221 17.3863 3.69613 17.7344 3.88397C18.088 4.06629 18.367 4.33147 18.5714 4.67953C18.7758 5.02206 18.878 5.43365 18.878 5.9143C18.878 5.96403 18.8753 6.02204 18.8697 6.08833C18.8642 6.14911 18.8587 6.20711 18.8532 6.26236H15.2317V5.50824H18.1736L17.6764 5.73199C17.6764 5.49995 17.6294 5.2983 17.5355 5.12703C17.4416 4.95577 17.3118 4.82317 17.146 4.72925C16.9803 4.62981 16.7869 4.58009 16.5659 4.58009C16.3449 4.58009 16.1488 4.62981 15.9775 4.72925C15.8118 4.82317 15.682 4.95853 15.5881 5.13532C15.4941 5.30659 15.4472 5.511 15.4472 5.74856V5.94745C15.4472 6.19054 15.4997 6.406 15.6046 6.59384C15.7151 6.77616 15.867 6.91704 16.0604 7.01649C16.2593 7.11041 16.4913 7.15737 16.7565 7.15737C16.9941 7.15737 17.2013 7.12146 17.3781 7.04963C17.5604 6.97781 17.7261 6.87008 17.8753 6.72644L18.5631 7.47227C18.3587 7.70431 18.1018 7.88387 17.7924 8.01093C17.483 8.13248 17.1267 8.19325 16.7234 8.19325Z" fill="#F05D23"/>
<path d="M14.9704 8.22134L12.5227 6.04264L11.2099 7.21569L12.3353 8.22134H14.9704ZM12.4581 5.98295L14.8854 3.85938H12.4446L11.2099 4.9154L12.4581 5.98295ZM9.96169 5.98295L9.89453 6.04039L9.8971 6.04264L9.96297 5.98405L9.96169 5.98295Z" fill="white"/>
<path d="M7.37305 8.17251L9.88668 5.93522L7.45805 3.81055H9.89886L12.4489 5.99156L10.0081 8.17251H7.37305Z" fill="#F05D23"/>
</svg>
