<svg width="14" height="15" viewBox="0 0 14 15" fill="none" xmlns="http://www.w3.org/2000/svg">
<path fill-rule="evenodd" clip-rule="evenodd" d="M6.8958 13.025C8.4201 13.025 9.88196 12.4195 10.9598 11.3416C12.0376 10.2638 12.6432 8.80193 12.6432 7.27764C12.6432 5.75334 12.0376 4.29148 10.9598 3.21364C9.88196 2.1358 8.4201 1.53027 6.8958 1.53027C5.37151 1.53027 3.90964 2.1358 2.8318 3.21364C1.75396 4.29148 1.14844 5.75334 1.14844 7.27764C1.14844 8.80193 1.75396 10.2638 2.8318 11.3416C3.90964 12.4195 5.37151 13.025 6.8958 13.025V13.025ZM9.55913 6.34886C9.69388 6.21411 9.76958 6.03136 9.76958 5.8408C9.76958 5.65023 9.69388 5.46748 9.55913 5.33273C9.42438 5.19798 9.24162 5.12228 9.05106 5.12228C8.8605 5.12228 8.67774 5.19798 8.54299 5.33273L6.17738 7.69892L5.24861 6.76957C5.11386 6.63482 4.9311 6.55912 4.74054 6.55912C4.54998 6.55912 4.36722 6.63482 4.23247 6.76957C4.09772 6.90432 4.02202 7.08707 4.02202 7.27764C4.02202 7.4682 4.09772 7.65096 4.23247 7.7857L5.66931 9.22254C5.73603 9.28928 5.81523 9.34221 5.90241 9.37833C5.98958 9.41444 6.08302 9.43303 6.17738 9.43303C6.27174 9.43303 6.36518 9.41444 6.45235 9.37833C6.53953 9.34221 6.61873 9.28928 6.68545 9.22254L9.55913 6.34886Z" fill="#091540"/>
</svg>
