<svg width="22" height="22" viewBox="0 0 22 22" fill="none" xmlns="http://www.w3.org/2000/svg">
<path d="M19.3972 6.24538L15.7247 2.5857C15.2948 2.15725 14.4357 1.80108 13.8277 1.80214L8.64154 1.81119C8.03351 1.81225 7.17573 2.17141 6.74728 2.60136L3.0876 6.27384C2.65915 6.70378 2.30298 7.56281 2.30404 8.17084L2.31309 13.357C2.31415 13.965 2.67332 14.8228 3.10326 15.2513L6.77574 18.9109C7.20569 19.3394 8.06471 19.6956 8.67274 19.6945L13.8589 19.6854C14.4669 19.6844 15.3247 19.3252 15.7532 18.8953L19.4128 15.2228C19.8413 14.7929 20.1975 13.9338 20.1964 13.3258L20.1873 8.13964C20.1863 7.53161 19.8271 6.67383 19.3972 6.24538ZM14.8583 13.3977C15.1181 13.6566 15.1188 14.0858 14.86 14.3455C14.7261 14.4799 14.5563 14.5428 14.3864 14.5431C14.2165 14.5434 14.0465 14.4811 13.9122 14.3472L11.2519 11.6961L8.60084 14.3564C8.46695 14.4908 8.29716 14.5537 8.12727 14.554C7.95738 14.5543 7.78738 14.492 7.65302 14.3581C7.39326 14.0992 7.39251 13.67 7.65137 13.4103L10.3024 10.75L7.6421 8.09893C7.38234 7.84008 7.38159 7.41088 7.64045 7.15112C7.8993 6.89136 8.3285 6.89061 8.58826 7.14947L11.2486 9.8005L13.8996 7.1402C14.1585 6.88044 14.5877 6.87969 14.8474 7.13855C15.1072 7.3974 15.1079 7.8266 14.8491 8.08636L12.198 10.7467L14.8583 13.3977Z" fill="#121212"/>
</svg>
