<svg width="21" height="21" viewBox="0 0 21 21" fill="none" xmlns="http://www.w3.org/2000/svg">
<path d="M11.375 7.875H9.625V6.125H11.375V7.875ZM11.375 14.875H9.625V9.625H11.375V14.875ZM10.5 1.75C9.35093 1.75 8.21312 1.97633 7.15152 2.41605C6.08992 2.85578 5.12533 3.5003 4.31282 4.31282C2.67187 5.95376 1.75 8.17936 1.75 10.5C1.75 12.8206 2.67187 15.0462 4.31282 16.6872C5.12533 17.4997 6.08992 18.1442 7.15152 18.5839C8.21312 19.0237 9.35093 19.25 10.5 19.25C12.8206 19.25 15.0462 18.3281 16.6872 16.6872C18.3281 15.0462 19.25 12.8206 19.25 10.5C19.25 9.35093 19.0237 8.21312 18.5839 7.15152C18.1442 6.08992 17.4997 5.12533 16.6872 4.31282C15.8747 3.5003 14.9101 2.85578 13.8485 2.41605C12.7869 1.97633 11.6491 1.75 10.5 1.75Z" fill="#0049B7"/>
</svg>
